<svg width="1920" height="1080" viewBox="0 0 1920 1080" fill="none" xmlns="http://www.w3.org/2000/svg">
<g clip-path="url(#clip0_2_2)">
<rect width="1920" height="1080" fill="#131313"/>
<path d="M-965.086 1102.58C-965.086 1102.58 -718.523 669.014 -445.85 617.468C-247.661 580.003 -141.711 746.37 59.0035 726.459C482.926 684.403 816.693 -58.3106 816.693 -58.3106" stroke="url(#paint0_linear_2_2)" stroke-width="2"/>
<path d="M-242.93 927.361C-242.93 927.361 130.978 597.265 405.622 636.987C605.245 665.86 651.477 857.604 847.792 903.9C1262.42 1001.68 1819.13 407.456 1819.13 407.456" stroke="url(#paint1_linear_2_2)" stroke-width="2"/>
<path d="M-316.372 994.268C-316.372 994.268 57.5354 664.171 332.18 703.894C531.802 732.766 578.035 924.511 774.35 970.806C1188.98 1068.59 1745.69 474.363 1745.69 474.363" stroke="url(#paint2_linear_2_2)" stroke-width="2"/>
<path d="M-392.311 1058.34C-392.311 1058.34 -18.4038 728.239 256.241 767.962C455.863 796.834 502.096 988.579 698.411 1034.87C1113.04 1132.65 1669.75 538.431 1669.75 538.431" stroke="url(#paint3_linear_2_2)" stroke-width="2"/>
<path d="M-470.777 1119.27C-470.777 1119.27 -96.87 789.178 177.774 828.901C377.397 857.773 423.629 1049.52 619.944 1095.81C1034.57 1193.59 1591.28 599.37 1591.28 599.37" stroke="url(#paint4_linear_2_2)" stroke-width="2"/>
<path d="M-551.944 1176.58C-551.944 1176.58 -178.037 846.48 96.6076 886.203C296.23 915.075 342.463 1106.82 538.778 1153.12C953.408 1250.89 1510.12 656.672 1510.12 656.672" stroke="url(#paint5_linear_2_2)" stroke-width="2"/>
<path d="M-636.06 1229.46C-636.06 1229.46 -262.153 899.359 12.4914 939.082C212.114 967.954 258.346 1159.7 454.661 1205.99C869.292 1303.77 1426 709.551 1426 709.551" stroke="url(#paint6_linear_2_2)" stroke-width="2"/>
<path d="M-723.435 1276.75C-723.435 1276.75 -349.527 946.657 -74.8829 986.38C124.74 1015.25 170.972 1207 367.287 1253.29C781.918 1351.07 1338.63 756.849 1338.63 756.849" stroke="url(#paint7_linear_2_2)" stroke-width="2"/>
<path d="M-814.376 1316.76C-814.376 1316.76 -440.469 986.665 -165.825 1026.39C33.798 1055.26 80.0303 1247.01 276.345 1293.3C690.976 1391.08 1247.68 796.857 1247.68 796.857" stroke="url(#paint8_linear_2_2)" stroke-width="2"/>
<path d="M-909.045 1346.91C-909.045 1346.91 -535.137 1016.82 -260.493 1056.54C-60.8703 1085.41 -14.6379 1277.16 181.677 1323.45C596.308 1421.23 1153.02 827.009 1153.02 827.009" stroke="url(#paint9_linear_2_2)" stroke-width="2"/>
<path d="M-1007.02 1363.41C-1007.02 1363.41 -633.11 1033.32 -358.465 1073.04C-158.843 1101.91 -112.61 1293.66 83.7045 1339.95C498.335 1437.73 1055.04 843.509 1055.04 843.509" stroke="url(#paint10_linear_2_2)" stroke-width="2"/>
<path d="M-1106.35 1361.19C-1106.35 1361.19 -732.44 1031.09 -457.795 1070.81C-258.173 1099.69 -211.94 1291.43 -15.6254 1337.73C399.005 1435.5 955.714 841.282 955.714 841.282" stroke="url(#paint11_linear_2_2)" stroke-width="2"/>
<path d="M-1201.08 1335.27C-1201.08 1335.27 -827.169 1005.17 -552.524 1044.89C-352.902 1073.77 -306.669 1265.51 -110.354 1311.81C304.276 1409.58 860.985 815.363 860.985 815.363" stroke="url(#paint12_linear_2_2)" stroke-width="2"/>
<path d="M-1285.92 1283.55C-1285.92 1283.55 -912.008 953.456 -637.364 993.179C-437.741 1022.05 -391.509 1213.8 -195.194 1260.09C219.437 1357.87 776.145 763.648 776.145 763.648" stroke="url(#paint13_linear_2_2)" stroke-width="2"/>
<path d="M-1360.25 1217.64C-1360.25 1217.64 -986.347 887.545 -711.702 927.268C-512.08 956.14 -465.847 1147.88 -269.532 1194.18C145.098 1291.96 701.807 697.737 701.807 697.737" stroke="url(#paint14_linear_2_2)" stroke-width="2"/>
<path d="M-1435.16 1152.36C-1435.16 1152.36 -1061.25 822.266 -786.605 861.989C-586.983 890.861 -540.75 1082.61 -344.435 1128.9C70.1952 1226.68 626.904 632.458 626.904 632.458" stroke="url(#paint15_linear_2_2)" stroke-width="2"/>
<path d="M-1521.78 1103.7C-1521.78 1103.7 -1147.87 773.606 -873.225 813.329C-673.603 842.201 -627.37 1033.95 -431.055 1080.24C-16.4247 1178.02 540.284 583.798 540.284 583.798" stroke="url(#paint16_linear_2_2)" stroke-width="2"/>
<path d="M-1640.42 1084.04C-1640.42 1084.04 -1266.51 753.947 -991.867 793.669C-792.244 822.542 -746.012 1014.29 -549.697 1060.58C-135.066 1158.36 421.642 564.138 421.642 564.138" stroke="url(#paint17_linear_2_2)" stroke-width="2"/>
<path d="M-1738.91 1097.13C-1738.91 1097.13 -1365 767.029 -1090.36 806.752C-890.733 835.624 -844.501 1027.37 -648.186 1073.66C-233.556 1171.44 323.153 577.221 323.153 577.221" stroke="url(#paint18_linear_2_2)" stroke-width="2"/>
<path d="M-1833.66 1127.02C-1833.66 1127.02 -1459.75 796.918 -1185.11 836.641C-985.484 865.514 -939.252 1057.26 -742.937 1103.55C-328.306 1201.33 228.402 607.11 228.402 607.11" stroke="url(#paint19_linear_2_2)" stroke-width="2"/>
<path d="M-1924.25 1167.8C-1924.25 1167.8 -1550.35 837.7 -1275.7 877.423C-1076.08 906.295 -1029.85 1098.04 -833.533 1144.34C-418.902 1242.11 137.806 647.892 137.806 647.892" stroke="url(#paint20_linear_2_2)" stroke-width="2"/>
<path d="M-2011.06 1216.13C-2011.06 1216.13 -1637.15 886.031 -1362.51 925.754C-1162.89 954.626 -1116.65 1146.37 -920.338 1192.67C-505.707 1290.44 51.0013 696.223 51.0013 696.223" stroke="url(#paint21_linear_2_2)" stroke-width="2"/>
<path d="M-131.998 759.901C-131.998 759.901 206.403 393.493 483.663 405.081C685.187 413.504 750.679 599.553 950.684 625.645C1373.11 680.753 1866.5 32.9989 1866.5 32.9989" stroke="url(#paint22_linear_2_2)" stroke-width="2"/>
<path d="M-193.35 834.411C-193.35 834.411 145.051 468.002 422.311 479.59C623.835 488.013 689.327 674.062 889.332 700.154C1311.76 755.262 1805.15 107.508 1805.15 107.508" stroke="url(#paint23_linear_2_2)" stroke-width="2"/>
<path d="M-259.606 908.439C-259.606 908.439 78.795 542.03 356.055 553.619C557.579 562.041 623.07 748.091 823.075 774.183C1245.5 829.29 1738.9 181.537 1738.9 181.537" stroke="url(#paint24_linear_2_2)" stroke-width="2"/>
<path d="M-328.635 979.897C-328.635 979.897 9.76599 613.488 287.026 625.076C488.55 633.499 554.041 819.548 754.046 845.64C1176.47 900.748 1669.87 252.994 1669.87 252.994" stroke="url(#paint25_linear_2_2)" stroke-width="2"/>
<path d="M-400.499 1048.5C-400.499 1048.5 -62.0983 682.094 215.162 693.682C416.686 702.105 482.177 888.155 682.182 914.246C1104.61 969.354 1598 321.6 1598 321.6" stroke="url(#paint26_linear_2_2)" stroke-width="2"/>
<path d="M-475.418 1113.76C-475.418 1113.76 -137.017 747.351 140.243 758.939C341.767 767.362 407.258 953.411 607.263 979.503C1029.69 1034.61 1523.08 386.857 1523.08 386.857" stroke="url(#paint27_linear_2_2)" stroke-width="2"/>
<path d="M-553.721 1174.91C-553.721 1174.91 -215.32 808.505 61.9398 820.093C263.464 828.516 328.955 1014.57 528.96 1040.66C951.384 1095.76 1444.78 448.011 1444.78 448.011" stroke="url(#paint28_linear_2_2)" stroke-width="2"/>
<path d="M-635.833 1230.85C-635.833 1230.85 -297.432 864.442 -20.1716 876.03C181.352 884.453 246.844 1070.5 446.849 1096.59C869.273 1151.7 1362.67 503.948 1362.67 503.948" stroke="url(#paint29_linear_2_2)" stroke-width="2"/>
<path d="M-722.235 1279.9C-722.235 1279.9 -383.834 913.492 -106.574 925.08C94.9498 933.503 160.441 1119.55 360.446 1145.64C782.871 1200.75 1276.27 552.998 1276.27 552.998" stroke="url(#paint30_linear_2_2)" stroke-width="2"/>
<path d="M-813.346 1319.52C-813.346 1319.52 -474.945 953.116 -197.685 964.704C3.83905 973.127 69.3304 1159.18 269.335 1185.27C691.76 1240.38 1185.16 592.622 1185.16 592.622" stroke="url(#paint31_linear_2_2)" stroke-width="2"/>
<path d="M-909.134 1345.9C-909.134 1345.9 -570.733 979.496 -293.473 991.084C-91.9492 999.506 -26.4578 1185.56 173.547 1211.65C595.972 1266.76 1089.37 619.002 1089.37 619.002" stroke="url(#paint32_linear_2_2)" stroke-width="2"/>
<path d="M-1008.18 1353.78C-1008.18 1353.78 -669.774 987.374 -392.514 998.962C-190.99 1007.38 -125.499 1193.43 74.5061 1219.53C496.93 1274.63 990.326 626.88 990.326 626.88" stroke="url(#paint33_linear_2_2)" stroke-width="2"/>
<path d="M-1105.05 1337.63C-1105.05 1337.63 -766.648 971.221 -489.387 982.809C-287.864 991.232 -222.372 1177.28 -22.3672 1203.37C400.057 1258.48 893.453 610.727 893.453 610.727" stroke="url(#paint34_linear_2_2)" stroke-width="2"/>
<path d="M-1194.71 1294.82C-1194.71 1294.82 -856.306 928.411 -579.046 939.999C-377.522 948.422 -312.03 1134.47 -112.025 1160.56C310.399 1215.67 803.795 567.917 803.795 567.917" stroke="url(#paint35_linear_2_2)" stroke-width="2"/>
<path d="M-1275.36 1236.8C-1275.36 1236.8 -936.961 870.395 -659.701 881.983C-458.178 890.406 -392.686 1076.46 -192.681 1102.55C229.743 1157.65 723.139 509.901 723.139 509.901" stroke="url(#paint36_linear_2_2)" stroke-width="2"/>
<path d="M-1356.52 1179.49C-1356.52 1179.49 -1018.11 813.076 -740.855 824.665C-539.331 833.087 -473.84 1019.14 -273.834 1045.23C148.59 1100.34 641.986 452.583 641.986 452.583" stroke="url(#paint37_linear_2_2)" stroke-width="2"/>
<path d="M-1447.63 1139.88C-1447.63 1139.88 -1109.23 773.471 -831.973 785.059C-630.45 793.482 -564.958 979.531 -364.953 1005.62C57.4712 1060.73 550.867 412.977 550.867 412.977" stroke="url(#paint38_linear_2_2)" stroke-width="2"/>
<path d="M-1567.66 1132.39C-1567.66 1132.39 -1229.26 765.981 -951.999 777.569C-750.475 785.992 -684.984 972.041 -484.979 998.133C-62.5543 1053.24 430.841 405.487 430.841 405.487" stroke="url(#paint39_linear_2_2)" stroke-width="2"/>
<path d="M-1664.31 1155.42C-1664.31 1155.42 -1325.91 789.008 -1048.65 800.596C-847.124 809.019 -781.633 995.068 -581.628 1021.16C-159.203 1076.27 334.192 428.514 334.192 428.514" stroke="url(#paint40_linear_2_2)" stroke-width="2"/>
<path d="M-1755.53 1194.79C-1755.53 1194.79 -1417.13 828.381 -1139.87 839.969C-938.344 848.392 -872.852 1034.44 -672.847 1060.53C-250.423 1115.64 242.973 467.887 242.973 467.887" stroke="url(#paint41_linear_2_2)" stroke-width="2"/>
<path d="M-1841.51 1244.57C-1841.51 1244.57 -1503.11 878.163 -1225.85 889.751C-1024.33 898.174 -958.835 1084.22 -758.83 1110.32C-336.405 1165.42 156.99 517.669 156.99 517.669" stroke="url(#paint42_linear_2_2)" stroke-width="2"/>
<path d="M-1922.95 1301.48C-1922.95 1301.48 -1584.55 935.073 -1307.29 946.661C-1105.77 955.084 -1040.27 1141.13 -840.27 1167.23C-417.845 1222.33 75.5504 574.579 75.5504 574.579" stroke="url(#paint43_linear_2_2)" stroke-width="2"/>
</g>
<defs>
<linearGradient id="paint0_linear_2_2" x1="-156.561" y1="168.138" x2="8.1683" y2="876.129" gradientUnits="userSpaceOnUse">
<stop stop-color="#2E2E2E"/>
<stop offset="0.5625" stop-color="#4D4D4D"/>
<stop offset="1" stop-color="white"/>
</linearGradient>
<linearGradient id="paint1_linear_2_2" x1="825.06" y1="305.842" x2="751.141" y2="1028.98" gradientUnits="userSpaceOnUse">
<stop stop-color="#2E2E2E"/>
<stop offset="0.5625" stop-color="#4D4D4D"/>
<stop offset="1" stop-color="white"/>
</linearGradient>
<linearGradient id="paint2_linear_2_2" x1="751.618" y1="372.749" x2="677.699" y2="1095.88" gradientUnits="userSpaceOnUse">
<stop stop-color="#2E2E2E"/>
<stop offset="0.5625" stop-color="#4D4D4D"/>
<stop offset="1" stop-color="white"/>
</linearGradient>
<linearGradient id="paint3_linear_2_2" x1="675.679" y1="436.816" x2="601.76" y2="1159.95" gradientUnits="userSpaceOnUse">
<stop stop-color="#2E2E2E"/>
<stop offset="0.5625" stop-color="#4D4D4D"/>
<stop offset="1" stop-color="white"/>
</linearGradient>
<linearGradient id="paint4_linear_2_2" x1="597.213" y1="497.755" x2="523.294" y2="1220.89" gradientUnits="userSpaceOnUse">
<stop stop-color="#2E2E2E"/>
<stop offset="0.5625" stop-color="#4D4D4D"/>
<stop offset="1" stop-color="white"/>
</linearGradient>
<linearGradient id="paint5_linear_2_2" x1="516.046" y1="555.058" x2="442.127" y2="1278.19" gradientUnits="userSpaceOnUse">
<stop stop-color="#2E2E2E"/>
<stop offset="0.5625" stop-color="#4D4D4D"/>
<stop offset="1" stop-color="white"/>
</linearGradient>
<linearGradient id="paint6_linear_2_2" x1="431.93" y1="607.937" x2="358.011" y2="1331.07" gradientUnits="userSpaceOnUse">
<stop stop-color="#2E2E2E"/>
<stop offset="0.5625" stop-color="#4D4D4D"/>
<stop offset="1" stop-color="white"/>
</linearGradient>
<linearGradient id="paint7_linear_2_2" x1="344.555" y1="655.235" x2="270.636" y2="1378.37" gradientUnits="userSpaceOnUse">
<stop stop-color="#2E2E2E"/>
<stop offset="0.5625" stop-color="#4D4D4D"/>
<stop offset="1" stop-color="white"/>
</linearGradient>
<linearGradient id="paint8_linear_2_2" x1="253.614" y1="695.243" x2="179.694" y2="1418.38" gradientUnits="userSpaceOnUse">
<stop stop-color="#2E2E2E"/>
<stop offset="0.5625" stop-color="#4D4D4D"/>
<stop offset="1" stop-color="white"/>
</linearGradient>
<linearGradient id="paint9_linear_2_2" x1="158.945" y1="725.394" x2="85.0262" y2="1448.53" gradientUnits="userSpaceOnUse">
<stop stop-color="#2E2E2E"/>
<stop offset="0.5625" stop-color="#4D4D4D"/>
<stop offset="1" stop-color="white"/>
</linearGradient>
<linearGradient id="paint10_linear_2_2" x1="60.9728" y1="741.895" x2="-12.9463" y2="1465.03" gradientUnits="userSpaceOnUse">
<stop stop-color="#2E2E2E"/>
<stop offset="0.5625" stop-color="#4D4D4D"/>
<stop offset="1" stop-color="white"/>
</linearGradient>
<linearGradient id="paint11_linear_2_2" x1="-38.3571" y1="739.668" x2="-112.276" y2="1462.8" gradientUnits="userSpaceOnUse">
<stop stop-color="#2E2E2E"/>
<stop offset="0.5625" stop-color="#4D4D4D"/>
<stop offset="1" stop-color="white"/>
</linearGradient>
<linearGradient id="paint12_linear_2_2" x1="-133.086" y1="713.748" x2="-207.005" y2="1436.88" gradientUnits="userSpaceOnUse">
<stop stop-color="#2E2E2E"/>
<stop offset="0.5625" stop-color="#4D4D4D"/>
<stop offset="1" stop-color="white"/>
</linearGradient>
<linearGradient id="paint13_linear_2_2" x1="-217.925" y1="662.033" x2="-291.845" y2="1385.17" gradientUnits="userSpaceOnUse">
<stop stop-color="#2E2E2E"/>
<stop offset="0.5625" stop-color="#4D4D4D"/>
<stop offset="1" stop-color="white"/>
</linearGradient>
<linearGradient id="paint14_linear_2_2" x1="-292.264" y1="596.122" x2="-366.183" y2="1319.26" gradientUnits="userSpaceOnUse">
<stop stop-color="#2E2E2E"/>
<stop offset="0.5625" stop-color="#4D4D4D"/>
<stop offset="1" stop-color="white"/>
</linearGradient>
<linearGradient id="paint15_linear_2_2" x1="-367.167" y1="530.844" x2="-441.086" y2="1253.98" gradientUnits="userSpaceOnUse">
<stop stop-color="#2E2E2E"/>
<stop offset="0.5625" stop-color="#4D4D4D"/>
<stop offset="1" stop-color="white"/>
</linearGradient>
<linearGradient id="paint16_linear_2_2" x1="-453.787" y1="482.183" x2="-527.706" y2="1205.32" gradientUnits="userSpaceOnUse">
<stop stop-color="#2E2E2E"/>
<stop offset="0.5625" stop-color="#4D4D4D"/>
<stop offset="1" stop-color="white"/>
</linearGradient>
<linearGradient id="paint17_linear_2_2" x1="-572.429" y1="462.524" x2="-646.348" y2="1185.66" gradientUnits="userSpaceOnUse">
<stop stop-color="#2E2E2E"/>
<stop offset="0.5625" stop-color="#4D4D4D"/>
<stop offset="1" stop-color="white"/>
</linearGradient>
<linearGradient id="paint18_linear_2_2" x1="-670.918" y1="475.607" x2="-744.837" y2="1198.74" gradientUnits="userSpaceOnUse">
<stop stop-color="#2E2E2E"/>
<stop offset="0.5625" stop-color="#4D4D4D"/>
<stop offset="1" stop-color="white"/>
</linearGradient>
<linearGradient id="paint19_linear_2_2" x1="-765.669" y1="505.496" x2="-839.588" y2="1228.63" gradientUnits="userSpaceOnUse">
<stop stop-color="#2E2E2E"/>
<stop offset="0.5625" stop-color="#4D4D4D"/>
<stop offset="1" stop-color="white"/>
</linearGradient>
<linearGradient id="paint20_linear_2_2" x1="-856.264" y1="546.278" x2="-930.184" y2="1269.41" gradientUnits="userSpaceOnUse">
<stop stop-color="#2E2E2E"/>
<stop offset="0.5625" stop-color="#4D4D4D"/>
<stop offset="1" stop-color="white"/>
</linearGradient>
<linearGradient id="paint21_linear_2_2" x1="-943.069" y1="594.608" x2="-1016.99" y2="1317.74" gradientUnits="userSpaceOnUse">
<stop stop-color="#2E2E2E"/>
<stop offset="0.5625" stop-color="#4D4D4D"/>
<stop offset="1" stop-color="white"/>
</linearGradient>
<linearGradient id="paint22_linear_2_2" x1="867.253" y1="32.999" x2="867.253" y2="759.901" gradientUnits="userSpaceOnUse">
<stop stop-color="#2E2E2E"/>
<stop offset="0.5625" stop-color="#4D4D4D"/>
<stop offset="1" stop-color="white"/>
</linearGradient>
<linearGradient id="paint23_linear_2_2" x1="805.901" y1="107.508" x2="805.901" y2="834.41" gradientUnits="userSpaceOnUse">
<stop stop-color="#2E2E2E"/>
<stop offset="0.5625" stop-color="#4D4D4D"/>
<stop offset="1" stop-color="white"/>
</linearGradient>
<linearGradient id="paint24_linear_2_2" x1="739.645" y1="181.537" x2="739.645" y2="908.439" gradientUnits="userSpaceOnUse">
<stop stop-color="#2E2E2E"/>
<stop offset="0.5625" stop-color="#4D4D4D"/>
<stop offset="1" stop-color="white"/>
</linearGradient>
<linearGradient id="paint25_linear_2_2" x1="670.616" y1="252.994" x2="670.616" y2="979.897" gradientUnits="userSpaceOnUse">
<stop stop-color="#2E2E2E"/>
<stop offset="0.5625" stop-color="#4D4D4D"/>
<stop offset="1" stop-color="white"/>
</linearGradient>
<linearGradient id="paint26_linear_2_2" x1="598.751" y1="321.6" x2="598.751" y2="1048.5" gradientUnits="userSpaceOnUse">
<stop stop-color="#2E2E2E"/>
<stop offset="0.5625" stop-color="#4D4D4D"/>
<stop offset="1" stop-color="white"/>
</linearGradient>
<linearGradient id="paint27_linear_2_2" x1="523.833" y1="386.857" x2="523.833" y2="1113.76" gradientUnits="userSpaceOnUse">
<stop stop-color="#2E2E2E"/>
<stop offset="0.5625" stop-color="#4D4D4D"/>
<stop offset="1" stop-color="white"/>
</linearGradient>
<linearGradient id="paint28_linear_2_2" x1="445.529" y1="448.011" x2="445.529" y2="1174.91" gradientUnits="userSpaceOnUse">
<stop stop-color="#2E2E2E"/>
<stop offset="0.5625" stop-color="#4D4D4D"/>
<stop offset="1" stop-color="white"/>
</linearGradient>
<linearGradient id="paint29_linear_2_2" x1="363.418" y1="503.948" x2="363.418" y2="1230.85" gradientUnits="userSpaceOnUse">
<stop stop-color="#2E2E2E"/>
<stop offset="0.5625" stop-color="#4D4D4D"/>
<stop offset="1" stop-color="white"/>
</linearGradient>
<linearGradient id="paint30_linear_2_2" x1="277.015" y1="552.998" x2="277.015" y2="1279.9" gradientUnits="userSpaceOnUse">
<stop stop-color="#2E2E2E"/>
<stop offset="0.5625" stop-color="#4D4D4D"/>
<stop offset="1" stop-color="white"/>
</linearGradient>
<linearGradient id="paint31_linear_2_2" x1="185.905" y1="592.622" x2="185.905" y2="1319.52" gradientUnits="userSpaceOnUse">
<stop stop-color="#2E2E2E"/>
<stop offset="0.5625" stop-color="#4D4D4D"/>
<stop offset="1" stop-color="white"/>
</linearGradient>
<linearGradient id="paint32_linear_2_2" x1="90.1165" y1="619.002" x2="90.1166" y2="1345.9" gradientUnits="userSpaceOnUse">
<stop stop-color="#2E2E2E"/>
<stop offset="0.5625" stop-color="#4D4D4D"/>
<stop offset="1" stop-color="white"/>
</linearGradient>
<linearGradient id="paint33_linear_2_2" x1="-8.92462" y1="626.88" x2="-8.92458" y2="1353.78" gradientUnits="userSpaceOnUse">
<stop stop-color="#2E2E2E"/>
<stop offset="0.5625" stop-color="#4D4D4D"/>
<stop offset="1" stop-color="white"/>
</linearGradient>
<linearGradient id="paint34_linear_2_2" x1="-105.798" y1="610.727" x2="-105.798" y2="1337.63" gradientUnits="userSpaceOnUse">
<stop stop-color="#2E2E2E"/>
<stop offset="0.5625" stop-color="#4D4D4D"/>
<stop offset="1" stop-color="white"/>
</linearGradient>
<linearGradient id="paint35_linear_2_2" x1="-195.456" y1="567.917" x2="-195.456" y2="1294.82" gradientUnits="userSpaceOnUse">
<stop stop-color="#2E2E2E"/>
<stop offset="0.5625" stop-color="#4D4D4D"/>
<stop offset="1" stop-color="white"/>
</linearGradient>
<linearGradient id="paint36_linear_2_2" x1="-276.112" y1="509.901" x2="-276.112" y2="1236.8" gradientUnits="userSpaceOnUse">
<stop stop-color="#2E2E2E"/>
<stop offset="0.5625" stop-color="#4D4D4D"/>
<stop offset="1" stop-color="white"/>
</linearGradient>
<linearGradient id="paint37_linear_2_2" x1="-357.265" y1="452.583" x2="-357.265" y2="1179.48" gradientUnits="userSpaceOnUse">
<stop stop-color="#2E2E2E"/>
<stop offset="0.5625" stop-color="#4D4D4D"/>
<stop offset="1" stop-color="white"/>
</linearGradient>
<linearGradient id="paint38_linear_2_2" x1="-448.384" y1="412.977" x2="-448.384" y2="1139.88" gradientUnits="userSpaceOnUse">
<stop stop-color="#2E2E2E"/>
<stop offset="0.5625" stop-color="#4D4D4D"/>
<stop offset="1" stop-color="white"/>
</linearGradient>
<linearGradient id="paint39_linear_2_2" x1="-568.409" y1="405.487" x2="-568.409" y2="1132.39" gradientUnits="userSpaceOnUse">
<stop stop-color="#2E2E2E"/>
<stop offset="0.5625" stop-color="#4D4D4D"/>
<stop offset="1" stop-color="white"/>
</linearGradient>
<linearGradient id="paint40_linear_2_2" x1="-665.058" y1="428.514" x2="-665.058" y2="1155.42" gradientUnits="userSpaceOnUse">
<stop stop-color="#2E2E2E"/>
<stop offset="0.5625" stop-color="#4D4D4D"/>
<stop offset="1" stop-color="white"/>
</linearGradient>
<linearGradient id="paint41_linear_2_2" x1="-756.278" y1="467.887" x2="-756.278" y2="1194.79" gradientUnits="userSpaceOnUse">
<stop stop-color="#2E2E2E"/>
<stop offset="0.5625" stop-color="#4D4D4D"/>
<stop offset="1" stop-color="white"/>
</linearGradient>
<linearGradient id="paint42_linear_2_2" x1="-842.26" y1="517.669" x2="-842.26" y2="1244.57" gradientUnits="userSpaceOnUse">
<stop stop-color="#2E2E2E"/>
<stop offset="0.5625" stop-color="#4D4D4D"/>
<stop offset="1" stop-color="white"/>
</linearGradient>
<linearGradient id="paint43_linear_2_2" x1="-923.7" y1="574.579" x2="-923.7" y2="1301.48" gradientUnits="userSpaceOnUse">
<stop stop-color="#2E2E2E"/>
<stop offset="0.5625" stop-color="#4D4D4D"/>
<stop offset="1" stop-color="white"/>
</linearGradient>
<clipPath id="clip0_2_2">
<rect width="1920" height="1080" fill="white"/>
</clipPath>
</defs>
</svg>
