<svg width="36" height="36" viewBox="0 0 36 36" fill="none" xmlns="http://www.w3.org/2000/svg">
<path d="M32.7128 15.7347C31.8049 15.7347 24.2656 16.597 20.2669 17.0637C23.4232 14.5651 29.3629 9.8438 30.009 9.20063C32.0297 7.17723 31.3296 5.87099 30.7319 5.27336C29.7415 4.283 28.2985 4.49929 26.8043 5.99621C26.1611 6.63937 21.4395 12.5787 18.9406 15.7347C19.4045 11.7363 20.2697 4.19763 20.2697 3.2898C20.2697 0.426877 18.8495 0 18.0043 0C17.159 0 15.7388 0.426877 15.7388 3.2898C15.7388 4.19763 16.6011 11.7391 17.0651 15.7347C14.5662 12.5787 9.84457 6.63937 9.20136 5.99621C7.70432 4.49929 6.26421 4.283 5.27378 5.27336C4.66472 5.88237 4.50249 6.67921 4.81556 7.51589C5.01478 8.04806 5.41323 8.61439 5.99668 9.20063C6.63989 9.8438 12.5796 14.5622 15.7359 17.0609C11.7372 16.597 4.19796 15.7319 3.28722 15.7319C0.426911 15.7347 0 17.1548 0 18C0 18.8452 0.426911 20.2653 3.28722 20.2653C4.19796 20.2653 11.7344 19.403 15.7331 18.9391C12.5768 21.4378 6.63704 26.159 5.99383 26.8022C5.41039 27.3856 5.01194 27.9519 4.81271 28.4841C4.4968 29.3236 4.66187 30.1205 5.27093 30.7266C5.67507 31.1279 6.16744 31.3442 6.69681 31.3442C7.47094 31.3442 8.31054 30.8945 9.19851 30.0066C9.84172 29.3635 14.5634 23.4213 17.0622 20.2653C16.5983 24.2637 15.7359 31.8024 15.7359 32.713C15.7359 35.5731 17.1561 36 18.0014 36C18.8467 36 20.2669 35.5731 20.2669 32.713C20.2669 31.8024 19.4045 24.2666 18.9378 20.2681C21.4366 23.4242 26.1583 29.3635 26.8015 30.0066C27.6895 30.8945 28.5319 31.3442 29.306 31.3442C29.8354 31.3442 30.3278 31.1307 30.7291 30.7266C31.3267 30.129 32.0297 28.8228 30.0062 26.7994C29.3629 26.1562 23.4232 21.4349 20.264 18.9363C24.2628 19.4002 31.802 20.2624 32.7099 20.2624C35.5731 20.2624 36 18.8452 36 17.9972C36.0028 17.1548 35.5759 15.7347 32.7128 15.7347Z" fill="#4B72C2"/>
</svg>
